<svg width="24" height="20" viewBox="0 0 24 20" fill="none" xmlns="http://www.w3.org/2000/svg">
<path fill-rule="evenodd" clip-rule="evenodd" d="M23.4772 2.03135C23.5271 1.72305 23.4948 1.40675 23.3839 1.11543C23.2729 0.824107 23.0871 0.568414 22.8461 0.374993C22.605 0.181571 22.3174 0.0574986 22.0132 0.0157023C21.709 -0.0260939 21.3993 0.0159151 21.1165 0.137353L1.54932 8.52407C0.185343 9.10881 0.115542 11.117 1.54932 11.7227C2.96924 12.3249 4.40965 12.8758 5.86784 13.3744C7.20435 13.824 8.66217 14.2399 9.83048 14.3575C10.1497 14.7466 10.5514 15.1216 10.961 15.4641C11.5869 15.9883 12.3399 16.5276 13.118 17.0447C14.6765 18.0814 16.4055 19.0727 17.5704 19.718C18.963 20.4868 20.6302 19.6015 20.8796 18.0558L23.4772 2.03135ZM3.74291 10.1117L21.049 2.69414L18.6254 17.6505C17.4823 17.018 15.8357 16.071 14.3687 15.0948C13.6926 14.6529 13.0398 14.1751 12.4131 13.6633C12.2456 13.524 12.083 13.3787 11.9257 13.2276L16.4581 8.61493C16.6729 8.39652 16.7935 8.10022 16.7936 7.79123C16.7938 7.48224 16.6733 7.18586 16.4587 6.96729C16.2442 6.74872 15.9531 6.62587 15.6495 6.62576C15.346 6.62565 15.0548 6.74829 14.8401 6.96671L9.87739 12.0185C9.03749 11.909 7.86804 11.5922 6.58415 11.1612C5.62835 10.837 4.68131 10.4867 3.74405 10.1106L3.74291 10.1117Z" fill="white"/>
</svg>
