<svg width="44" height="7" viewBox="0 0 44 7" fill="none" xmlns="http://www.w3.org/2000/svg">
<path d="M19.7143 0.185271C18.4571 0.333488 15.8286 0.600277 13.8286 0.778137C10.0571 1.10421 3.48571 2.55674 2.28571 3.29782C1.88571 3.53497 1.2 3.74247 0.8 3.74247C0.342857 3.74247 0 4.00926 0 4.30569C0 4.77998 0.514286 4.9282 3.31429 5.07642C11.1429 5.49142 16.6857 5.90643 22.2857 6.44001C30.5143 7.21074 37.3143 7.18109 40.2857 6.38072C42.9714 5.66928 44 5.04677 44 4.18712C44 3.47568 42.7429 1.96387 42.1714 1.96387C41.9429 1.96387 41.4286 1.78601 40.9714 1.54886C38.9714 0.511347 35.7714 0.0963411 28.8571 0.007411C25.0857 -0.0222325 20.9714 0.0370541 19.7143 0.185271Z" fill="white"/>
</svg>
