<svg width="132" height="36" viewBox="0 0 132 36" fill="none" xmlns="http://www.w3.org/2000/svg">
<path fill-rule="evenodd" clip-rule="evenodd" d="M16.3614 5.69481C16.3699 5.74702 16.3716 5.79406 16.3648 5.79967C16.358 5.80528 16.285 5.79751 16.0538 5.75565L16.1997 5.67798C16.3447 5.60116 16.346 5.60116 16.3614 5.69481ZM17.4999 5.72545L17.5127 5.8329C17.5233 5.92136 17.5425 5.9356 17.6214 5.91446C17.6743 5.89978 17.7605 5.86095 17.8134 5.82815C17.9034 5.77162 17.9094 5.77464 17.9094 5.87562C17.9094 5.93474 17.914 5.98393 17.92 5.98436C17.926 5.9848 18.0122 5.95588 18.2933 5.85404V5.96192C18.2933 6.02104 18.3078 6.07024 18.3253 6.07067C18.3427 6.07153 18.4293 6.04219 18.6772 5.94035V6.19927L19.0611 6.06981V6.17769C19.0611 6.23681 19.0803 6.28557 19.1037 6.28557C19.1272 6.28557 19.2138 6.25623 19.445 6.15611V6.28557C19.445 6.41288 19.4471 6.41417 19.5836 6.36541C19.66 6.33865 19.747 6.29464 19.7773 6.26831C19.8212 6.23077 19.8323 6.25062 19.8306 6.36109C19.8289 6.48581 19.8395 6.49832 19.9249 6.47502C19.9777 6.46035 20.0643 6.40684 20.2149 6.264L20.2128 6.6308L20.3514 6.60405C20.4278 6.58981 20.5148 6.55571 20.5451 6.52853C20.589 6.48969 20.6001 6.50868 20.5984 6.62001C20.5975 6.69726 20.6014 6.76069 20.6073 6.76112C20.6133 6.76156 20.6995 6.73264 20.9806 6.6308L20.9797 6.77105C20.9789 6.89619 20.9524 6.92683 20.49 7.1974L20.0848 6.98207C19.8617 6.86383 19.4876 6.68992 19.253 6.59585C19.0184 6.50177 18.5769 6.34426 18.2719 6.24544C17.9669 6.14705 17.5975 6.04262 17.4508 6.01414C17.3041 5.98523 17.1808 5.95114 17.1774 5.93819C17.1735 5.92481 17.2448 5.87173 17.3352 5.81995L17.4999 5.72545ZM22.0995 7.62246C22.1165 7.62289 22.1357 7.76228 22.1536 8.24128L22.3353 8.30989C22.5051 8.37376 22.5171 8.38887 22.5166 8.54033C22.5162 8.69353 22.5247 8.70345 22.6762 8.73021C22.764 8.74574 22.8745 8.78588 22.9214 8.8191C22.9684 8.85276 23.069 8.87434 23.145 8.86657C23.2533 8.85622 23.2832 8.86959 23.2836 8.92871C23.284 8.99042 23.3088 8.99905 23.4226 8.97661C23.499 8.96108 23.586 8.92742 23.6167 8.90109C23.6585 8.86441 23.6713 8.87089 23.67 8.92871C23.6683 8.98611 23.6909 8.99776 23.7639 8.97791C23.8168 8.96367 23.903 8.92483 23.9558 8.8916C24.0433 8.8368 24.0518 8.83939 24.0518 8.91792C24.0518 8.99733 24.0608 8.99948 24.1691 8.94511C24.2335 8.91275 24.3201 8.85449 24.3611 8.81565C24.4306 8.75006 24.4357 8.75135 24.4357 8.83162C24.4357 8.87909 24.4549 8.91792 24.4784 8.91792C24.5018 8.91792 24.5884 8.85967 24.8196 8.659V8.78847C24.8196 8.85967 24.8341 8.91792 24.8516 8.91792C24.8691 8.91836 24.9557 8.8601 25.0436 8.78847C25.157 8.69655 25.2035 8.67756 25.2035 8.72373C25.2035 8.75912 25.218 8.78847 25.2355 8.7889C25.253 8.78933 25.3383 8.72632 25.4245 8.64865C25.5678 8.51962 25.5823 8.5153 25.5951 8.59384C25.6071 8.67022 25.6297 8.6603 25.7883 8.50754C25.953 8.34916 25.9675 8.34312 25.9696 8.43245C25.9709 8.51142 25.9888 8.5248 26.0673 8.50365C26.1202 8.48941 26.2064 8.48941 26.2593 8.50365C26.3267 8.52178 26.3552 8.56191 26.3552 8.63743C26.3552 8.69655 26.3697 8.74574 26.3872 8.74617C26.4047 8.74661 26.4913 8.71769 26.5792 8.68144C26.7208 8.62319 26.7391 8.62319 26.7391 8.68058C26.7391 8.71597 26.7583 8.73539 26.7818 8.72373C26.8053 8.71165 26.8245 8.72158 26.8245 8.74531C26.8245 8.76905 26.7596 8.97748 26.6803 9.20921C26.6005 9.44051 26.4781 9.77538 26.4077 9.9536C26.3369 10.1314 26.1974 10.4615 26.0976 10.6872C25.9974 10.9125 25.7683 11.369 25.5883 11.7013C25.4087 12.0336 25.1016 12.548 24.9066 12.8449C24.7113 13.1413 24.4344 13.5396 24.2915 13.7295C24.1486 13.9194 23.8475 14.2978 23.6223 14.571C23.3971 14.8437 22.9841 15.3081 22.7047 15.6019C22.4249 15.8962 21.9374 16.3731 21.6204 16.6618C21.3039 16.95 20.8526 17.3427 20.1915 17.8822L20.2183 18.1143C20.2333 18.2421 20.2358 18.5312 20.2047 19.1668L20.1232 19.0266C20.0788 18.9493 19.9991 18.8566 19.9462 18.8207C19.8903 18.7823 19.8459 18.7737 19.8395 18.7992C19.8331 18.8246 19.7913 18.8294 19.7393 18.8108C19.6745 18.7875 19.6386 18.7992 19.6113 18.854C19.59 18.8954 19.5444 18.9295 19.509 18.9295C19.4663 18.9295 19.445 18.9726 19.445 19.0589C19.445 19.1465 19.4211 19.194 19.3703 19.2057C19.3294 19.2156 19.2428 19.235 19.1784 19.2488C19.0649 19.2738 19.0611 19.2842 19.0611 19.5552C19.0611 19.7511 19.0449 19.8353 19.0077 19.8348C18.9783 19.8348 18.8917 19.8495 18.8149 19.8672C18.6934 19.8961 18.675 19.8892 18.6725 19.8141C18.6705 19.7577 18.6577 19.7721 18.6341 19.8573C18.614 19.9285 18.6064 20.0109 18.6162 20.0407C18.6264 20.07 18.6153 20.0946 18.5919 20.0946C18.5684 20.0946 18.5492 20.1235 18.5492 20.1594C18.5492 20.1947 18.5253 20.234 18.4959 20.2465C18.4596 20.2621 18.4494 20.3307 18.4639 20.4597C18.4831 20.6302 18.475 20.653 18.3892 20.6746C18.3082 20.6949 18.2937 20.7273 18.295 20.8822C18.2962 21.0556 18.286 21.0712 18.103 21.1735C17.946 21.2606 17.9094 21.3038 17.9094 21.4C17.9094 21.4652 17.8855 21.5265 17.856 21.5364C17.8266 21.5463 17.7498 21.5657 17.6854 21.5795C17.6159 21.5946 17.5464 21.6512 17.5148 21.7181C17.4832 21.7854 17.3966 21.8553 17.3015 21.8907C17.142 21.9498 17.1416 21.9506 17.142 22.1983C17.1428 22.4452 17.142 22.4465 16.982 22.5108C16.8937 22.5462 16.8024 22.5841 16.779 22.5945C16.7525 22.6066 16.7495 22.5824 16.7713 22.5302C16.7905 22.484 16.8511 22.2717 16.9061 22.0581C16.9611 21.8445 17.0251 21.4656 17.0486 21.2166C17.0759 20.921 17.0763 20.628 17.0494 20.3751C17.0264 20.1615 16.9948 19.9716 16.9786 19.9539C16.9628 19.9358 16.7768 20.0182 16.5657 20.1373C16.3545 20.2564 16.0427 20.4118 15.8725 20.483C15.7023 20.5542 15.5155 20.6125 15.4566 20.6125C15.3982 20.6125 15.2877 20.5836 15.2114 20.5486C15.135 20.5132 14.5702 19.9742 13.9564 19.3511C13.1677 18.5497 12.8312 18.1795 12.8098 18.088C12.7928 18.0168 12.7881 17.8904 12.7992 17.8075C12.8103 17.7242 12.8764 17.53 12.9463 17.376C13.0163 17.2215 13.1733 16.9449 13.2948 16.761C13.4659 16.5021 13.5013 16.4214 13.4518 16.405C13.4168 16.3929 13.0905 16.3834 12.7267 16.3834C12.2545 16.3834 11.9465 16.4067 11.6496 16.4646C11.421 16.5094 11.0516 16.6048 10.8285 16.6773C10.6058 16.7494 10.265 16.8681 10.0713 16.941C9.87766 17.0139 9.63794 17.0739 9.53812 17.0739C9.43831 17.0743 9.31845 17.048 9.27152 17.0161C9.2246 16.9837 9.15976 16.9013 9.12735 16.8322C9.07403 16.7183 9.07872 16.6859 9.18152 16.4697C9.2438 16.339 9.42338 16.0576 9.58078 15.844C9.73818 15.6304 10.117 15.2015 10.4224 14.8908C10.7278 14.5801 11.1411 14.2038 11.3403 14.0549C11.54 13.906 11.7895 13.7399 11.8949 13.6859C12.0007 13.6316 12.2886 13.528 12.5347 13.4551C12.7813 13.3821 13.1362 13.2993 13.3238 13.2712C13.5115 13.2432 13.9146 13.2186 14.2196 13.2164C14.5246 13.2147 14.9759 13.2402 15.6699 13.3334L15.7766 13.1879C15.8354 13.1081 16.0457 12.8475 16.2441 12.6093C16.4424 12.3711 16.8391 11.9136 17.1249 11.5934C17.4111 11.2728 17.8535 10.8154 18.1077 10.5763C18.3624 10.3377 18.7241 10.0058 18.9118 9.83925C19.0995 9.67268 19.445 9.38484 19.6796 9.19928C19.9142 9.01372 20.3365 8.70561 20.618 8.51444C20.8995 8.32327 21.341 8.04407 21.5991 7.89433C21.8572 7.74459 22.0824 7.62246 22.0995 7.62246ZM21.2365 10.0183C21.1192 10.0775 20.9443 10.2086 20.8475 10.3096C20.7511 10.4102 20.6219 10.5901 20.5604 10.7088C20.4627 10.8969 20.4487 10.9763 20.4482 11.3349C20.4474 11.7082 20.4598 11.7712 20.5818 12.0254C20.6671 12.2036 20.7908 12.3723 20.923 12.4906C21.0369 12.5924 21.2165 12.7176 21.3218 12.7689C21.4728 12.8419 21.5957 12.8621 21.8977 12.8639C22.2389 12.866 22.3102 12.8522 22.5375 12.7391C22.6783 12.6692 22.8848 12.5186 22.9961 12.4047C23.1074 12.2908 23.2499 12.0858 23.313 11.9494C23.3911 11.7794 23.4329 11.6059 23.4453 11.3992C23.4593 11.1584 23.4431 11.0441 23.3663 10.8382C23.3028 10.6682 23.1949 10.4999 23.0528 10.3493C22.9278 10.2164 22.7282 10.0658 22.5802 9.99244C22.404 9.90527 22.2377 9.85996 22.047 9.84658C21.8947 9.83623 21.6976 9.84615 21.6098 9.86902C21.5219 9.89146 21.3538 9.95878 21.2365 10.0183ZM4.86217 10.1491C4.88265 10.1603 4.79606 10.3001 4.66937 10.4607C4.54311 10.6208 4.28845 10.9854 4.10418 11.2706C3.9199 11.5559 3.62174 12.0901 3.4413 12.4574C3.2613 12.8246 3.01773 13.3873 2.9 13.7079C2.78227 14.0281 2.60951 14.5913 2.51567 14.9594C2.42225 15.3271 2.31561 15.8125 2.27893 16.0382C2.24267 16.2635 2.19362 16.6324 2.17016 16.8581C2.14712 17.0834 2.12793 17.5883 2.12707 17.9801C2.12665 18.3715 2.14712 18.9058 2.17272 19.1668C2.19788 19.4279 2.26571 19.9035 2.32372 20.2241C2.3813 20.5443 2.4841 21.0103 2.55193 21.2598C2.61975 21.5088 2.74473 21.9071 2.82962 22.1444C2.9145 22.3817 3.07105 22.7602 3.17684 22.9859C3.28262 23.2112 3.46818 23.5607 3.58847 23.7627C3.70918 23.9642 3.90455 24.2287 4.02313 24.35C4.18437 24.5157 4.29656 24.5882 4.47273 24.6417C4.60197 24.6805 4.77473 24.712 4.85663 24.7116C4.93896 24.7112 5.11171 24.6857 5.24053 24.6551C5.36978 24.6249 5.70548 24.4777 5.98701 24.3284C6.26854 24.1791 6.72923 23.9003 7.01076 23.7091C7.29229 23.518 7.72439 23.2043 7.97052 23.0118C8.21707 22.8198 8.64875 22.4698 8.93027 22.2342C9.2118 21.9985 9.66311 21.6102 9.93269 21.3711C10.2027 21.132 10.8169 20.5797 12.1721 19.3507L12.9933 20.1865C13.445 20.6461 13.8148 21.0561 13.8144 21.0979C13.8144 21.1402 13.4561 21.5092 12.9933 21.9424C12.5415 22.3658 11.9034 22.9535 11.5749 23.2496C11.2465 23.5452 10.7666 23.9711 10.5085 24.1959C10.2505 24.4207 9.83799 24.7716 9.59144 24.9753C9.34532 25.1794 8.91321 25.5285 8.63168 25.7512C8.35015 25.9743 7.88009 26.3191 7.58661 26.5176C7.29357 26.7161 6.84227 26.9828 6.5842 27.1096C6.32613 27.2369 5.97123 27.3802 5.79506 27.4285C5.61932 27.4769 5.34078 27.5286 5.17655 27.5437C4.96924 27.5627 4.76705 27.5485 4.51538 27.498C4.31618 27.4579 4.01844 27.3595 3.85421 27.2796C3.68999 27.1998 3.43107 27.0298 3.27836 26.9016C3.12608 26.7739 2.83815 26.4615 2.63852 26.2073C2.43932 25.9535 2.14584 25.5371 1.98716 25.2825C1.82805 25.0279 1.59473 24.6063 1.46804 24.3452C1.34135 24.0841 1.1511 23.6569 1.04574 23.3959C0.939957 23.1348 0.755684 22.6005 0.636247 22.2091C0.51681 21.8173 0.362822 21.2153 0.294146 20.8714C0.225896 20.527 0.148689 20.0709 0.123095 19.8573C0.0975018 19.6437 0.0676426 19.4055 0.0565521 19.3287C0.0454615 19.2501 0.0552724 19.1884 0.0791597 19.1884C0.102621 19.1884 0.150822 19.2173 0.1858 19.2531C0.242532 19.3105 0.249784 19.1932 0.249784 17.0739L0.409744 17.2034C0.497615 17.275 0.584207 17.3332 0.601695 17.3328C0.619184 17.3328 0.633687 17.2357 0.633687 17.117C0.633687 16.95 0.658001 16.8719 0.740327 16.7718C0.799193 16.7006 0.875973 16.5401 0.911378 16.4158C0.946782 16.2911 0.975788 16.1647 0.975362 16.1353C0.974935 16.1055 0.989865 16.0762 1.00778 16.0706C1.02612 16.0645 1.11698 15.7922 1.2104 15.4651C1.30381 15.138 1.38998 14.8714 1.4015 14.8726C1.41344 14.8739 1.48467 14.6854 1.56018 14.4532C1.6361 14.221 1.71032 13.9733 1.72525 13.9021C1.74146 13.8245 1.76322 13.7947 1.77943 13.8275C1.79692 13.862 1.83445 13.8223 1.8818 13.7196C1.92318 13.6298 2.00337 13.421 2.0601 13.2548C2.12579 13.0624 2.16461 12.9916 2.17144 13.1685L2.25547 13.0606C2.30154 13.0011 2.3877 12.8557 2.44699 12.737C2.54638 12.5363 2.55406 12.5303 2.5515 12.7801L2.69738 12.6075C2.778 12.5126 2.91536 12.3572 3.00323 12.2623C3.09067 12.1674 3.19774 12.012 3.24082 11.9171C3.31845 11.7462 3.31931 11.7458 3.31845 12.0034L3.40761 11.9171C3.45623 11.8696 3.53856 11.7384 3.59017 11.6258C3.64136 11.5127 3.6934 11.4411 3.70492 11.4661C3.71686 11.4912 3.77615 11.4476 3.83715 11.369C3.89815 11.2905 3.97877 11.1684 4.01673 11.0972C4.05427 11.026 4.08626 10.9919 4.08712 11.0216C4.08797 11.051 4.23556 10.9056 4.41514 10.698C4.5943 10.49 4.7598 10.2773 4.78283 10.2246C4.80587 10.172 4.84127 10.1379 4.86217 10.1491ZM27.1017 11.2068L27.1273 12.737L27.3171 12.9635C27.4536 13.1267 27.5078 13.2294 27.5095 13.3303C27.5116 13.4438 27.5462 13.4952 27.8695 13.7325L27.8815 14.0545C27.8913 14.3164 27.9194 14.4286 28.0308 14.653C28.1063 14.8049 28.192 14.9361 28.2214 14.9443C28.2598 14.9551 28.2748 15.085 28.2752 15.4017C28.2756 15.6447 28.2854 15.8876 28.2965 15.9411C28.314 16.0218 28.3456 16.0382 28.6587 16.0382L28.6582 16.4374C28.6574 16.711 28.6446 16.8158 28.616 16.7718C28.5934 16.736 28.5751 16.6488 28.5755 16.5776C28.5759 16.5034 28.5388 16.4111 28.4893 16.3619C28.4415 16.3144 28.3946 16.2851 28.3852 16.2971C28.3759 16.3088 28.3417 16.4546 28.25 16.9229L28.1451 16.8029C28.0875 16.7373 28.0065 16.6838 27.9655 16.6842C27.9246 16.6851 27.8909 16.7049 27.8909 16.7287C27.8909 16.7524 27.8051 16.8542 27.5099 17.1386L27.5035 16.8797C27.5001 16.7373 27.4899 16.6544 27.4805 16.6963C27.4715 16.7377 27.4451 16.7718 27.4216 16.7718C27.3982 16.7718 27.3675 16.8542 27.3538 16.9552C27.3402 17.0558 27.3496 17.221 27.3751 17.322C27.4007 17.4226 27.4408 17.5054 27.4643 17.5054C27.4878 17.5054 27.507 17.486 27.507 17.4623C27.507 17.4381 27.5355 17.4334 27.5709 17.4515C27.6102 17.4713 27.6639 17.4545 27.7096 17.4088C27.7748 17.3427 27.7949 17.341 27.8695 17.3941C27.9429 17.4463 27.9757 17.4459 28.1041 17.3928C28.1865 17.3583 28.2581 17.3311 28.2641 17.3315C28.2701 17.3324 28.2748 17.3522 28.2748 17.376C28.2748 17.3997 28.2995 17.4433 28.3294 17.4731C28.3592 17.5024 28.3946 17.5559 28.4078 17.5917C28.4287 17.6491 28.4398 17.6491 28.5055 17.5917C28.5461 17.5559 28.5955 17.4687 28.6152 17.3975C28.6373 17.3177 28.6531 17.6923 28.6625 19.4689L28.831 19.2747C28.9969 19.0835 28.9999 19.0822 28.9999 19.1992C28.9999 19.2644 28.9709 19.5457 28.9351 19.8249C28.8997 20.1037 28.8408 20.4873 28.8041 20.6772C28.7679 20.8671 28.6907 21.2166 28.6326 21.454C28.5746 21.6913 28.4428 22.1574 28.3392 22.4896C28.2355 22.8219 28.0756 23.278 27.8162 23.9137L27.7531 23.7842C27.7181 23.713 27.6533 23.6388 27.6089 23.6198C27.5598 23.5987 27.524 23.6026 27.5176 23.6306C27.5116 23.6556 27.4878 23.6763 27.4643 23.6763C27.4408 23.6763 27.3594 23.7277 27.1444 23.9046L27.1017 23.6625L27.039 23.7881C27.0045 23.8572 26.923 23.9961 26.8577 24.0971C26.7916 24.1994 26.7383 24.3422 26.7374 24.4207C26.7366 24.5161 26.6752 24.6473 26.5455 24.8307C26.441 24.9787 26.3552 25.144 26.3557 25.1975C26.3561 25.2506 26.3254 25.4012 26.2878 25.5319C26.2418 25.692 26.1795 25.8008 26.0955 25.8664C25.991 25.9479 25.9713 25.9941 25.9713 26.1577C25.9713 26.3462 25.9658 26.354 25.7794 26.4382C25.6433 26.4994 25.5844 26.5525 25.5768 26.6216C25.5697 26.6863 25.5092 26.7474 25.3955 26.805C25.3016 26.8524 25.2155 26.9038 25.2035 26.9189C25.192 26.9344 25.1007 26.9685 25.0009 26.9944C24.8384 27.0371 24.8196 27.0557 24.8196 27.1718C24.8196 27.29 24.803 27.3047 24.6277 27.3444C24.4784 27.3776 24.4357 27.4065 24.4357 27.4738C24.4357 27.5394 24.3897 27.5731 24.2433 27.6141C24.0697 27.6624 24.0514 27.6805 24.0514 27.7975C24.0518 27.9011 24.0326 27.9282 23.9558 27.9334C23.903 27.9373 23.8215 27.9472 23.7746 27.955C23.7204 27.9645 23.6816 28.0133 23.6679 28.0883C23.647 28.2049 23.6445 28.2057 23.5186 28.141C23.4482 28.1047 23.3668 28.0758 23.3373 28.0767C23.3028 28.0775 23.2802 28.1613 23.2627 28.5578L23.1539 28.3503C23.0942 28.2359 23.0127 28.1375 22.9726 28.1319C22.9146 28.1233 22.9001 28.1557 22.9001 28.4664L22.7935 28.3585C22.735 28.2989 22.6484 28.2506 22.6015 28.2506C22.5446 28.2506 22.5162 28.2794 22.5162 28.3369C22.5162 28.3844 22.497 28.4232 22.4735 28.4232C22.4501 28.4232 22.4309 28.4038 22.4309 28.3801C22.4309 28.3563 22.3686 28.3171 22.2923 28.2929C22.2159 28.2687 22.1489 28.2493 22.143 28.2497C22.137 28.2502 22.1323 28.3089 22.1323 28.5095L21.9937 28.3801C21.9173 28.3089 21.8311 28.2506 21.8017 28.2506C21.7638 28.2506 21.7484 28.3455 21.7497 28.9195L21.5675 28.9877C21.3892 29.055 21.3854 29.0606 21.3645 29.2897C21.353 29.4183 21.324 29.521 21.3005 29.518C21.277 29.5154 21.2387 29.5189 21.2152 29.5266C21.1917 29.534 21.1341 29.5461 21.0872 29.5538C21.0177 29.565 20.9998 29.6052 20.9913 29.7722C20.981 29.9681 20.9755 29.9767 20.8526 29.9767C20.7822 29.9767 20.6961 29.9862 20.6607 29.9983C20.6257 30.01 20.5967 30.0682 20.5967 30.1278C20.5967 30.1869 20.6398 30.3125 20.6927 30.4061C20.7456 30.5002 20.8317 30.5973 20.8846 30.6219C20.9669 30.6607 20.9806 30.6547 20.9806 30.5809C20.9806 30.5071 21.0092 30.4946 21.1725 30.4946C21.3274 30.4946 21.3641 30.4799 21.3632 30.419C21.3628 30.3772 21.4396 30.2801 21.5338 30.2033C21.6285 30.126 21.7079 30.0289 21.7109 29.9875C21.7134 29.9457 21.7279 29.9668 21.7697 30.1558L21.951 30.0229C22.0589 29.9444 22.1366 29.9107 22.143 29.9409C22.1489 29.9703 22.2151 29.9379 22.2974 29.8654C22.404 29.7722 22.4497 29.6889 22.5055 29.351L22.5183 29.7394L22.645 29.5883C22.7146 29.5051 22.7956 29.3596 22.8788 29.0921L22.9214 29.5038L23.2879 29.1352L23.284 29.4157L23.476 29.3079C23.5818 29.2483 23.6671 29.2142 23.6662 29.2323C23.6649 29.25 23.5161 29.3803 23.3356 29.5215C23.1548 29.6626 22.7862 29.9267 22.5162 30.1083C22.2466 30.29 21.8145 30.5576 21.5564 30.703C21.2984 30.8489 20.8377 31.0823 20.5327 31.2221C20.2277 31.3619 19.7286 31.5678 19.4236 31.6796C19.1187 31.7913 18.5812 31.9579 18.2293 32.0498C17.8774 32.1417 17.3689 32.2552 17.0989 32.3018C16.8293 32.3484 16.407 32.4123 16.1605 32.4438C15.89 32.4783 15.2818 32.5008 14.6248 32.4999C13.9863 32.499 13.3699 32.4757 13.1319 32.4434C12.9092 32.4132 12.4579 32.3411 12.1295 32.2837C11.801 32.2259 11.2926 32.1124 10.9991 32.0308C10.706 31.9493 10.4083 31.8599 10.21 31.7823L10.4019 31.6886C10.5815 31.601 10.5951 31.5997 10.6152 31.6709C10.6348 31.7404 10.651 31.7374 10.7965 31.6386C10.8843 31.579 10.9633 31.4862 10.9718 31.4331C10.9803 31.3796 10.9901 31.4086 10.9931 31.4979C10.9965 31.5868 11.0136 31.6597 11.0311 31.6601C11.0486 31.6606 11.0946 31.6364 11.133 31.6062C11.1714 31.5764 11.2388 31.4741 11.3617 31.2066L11.4043 31.532L11.5877 31.3477C11.7626 31.1716 11.7707 31.1682 11.7699 31.2713C11.769 31.3714 11.7823 31.3645 12.1508 30.9693L12.1721 31.273L12.5385 30.9045L12.5368 31.0448C12.5356 31.1216 12.5492 31.1842 12.5667 31.1837C12.5842 31.1829 12.661 31.1345 12.7373 31.0758C12.8137 31.0172 12.8858 30.9693 12.8973 30.9693C12.9092 30.9693 12.9186 31.0081 12.9186 31.0556C12.9186 31.1414 12.919 31.1414 13.0786 31.0543C13.1664 31.0059 13.238 30.9247 13.2555 30.8958C13.6733 30.8863 13.3017 30.9226 13.3021 31.0016C13.3021 31.0784 13.317 31.1354 13.3345 31.1276C13.352 31.1199 13.4292 31.0858 13.5056 31.0521C13.6254 30.999 13.6442 30.9697 13.6425 30.8398C13.6412 30.7565 13.6267 30.6063 13.6101 30.5062C13.5879 30.3729 13.5864 30.3337 13.6252 30.3333C13.7487 30.3333 13.6868 30.435 13.6898 31.1634L14.0388 30.9908L14.0089 30.7751C13.9923 30.6564 13.9645 30.5494 13.9466 30.5377C13.9291 30.5256 13.9018 30.482 13.886 30.4406C13.863 30.3811 13.8796 30.3651 13.9637 30.3651C14.0695 30.3651 14.0703 30.3677 14.0703 30.7535C14.0703 31.1311 14.0729 31.1401 14.1556 31.0879C14.2047 31.0569 14.2409 30.9878 14.2405 30.9261C14.2401 30.8665 14.2145 30.7211 14.1262 30.3867L15.0258 30.3535C15.5211 30.3358 16.0265 30.3064 16.3729 30.2572L16.3746 30.3867C16.3763 30.5079 16.372 30.5118 16.3004 30.4462C16.2586 30.4078 16.1716 30.3642 16.1071 30.3491C16.0427 30.334 15.9898 30.3362 15.9898 30.3543C15.9894 30.372 15.9032 30.4203 15.7979 30.4622C15.6797 30.5084 15.5978 30.5709 15.5846 30.624C15.5731 30.6715 15.5347 30.7103 15.4993 30.7103C15.4643 30.7103 15.4353 30.7297 15.4353 30.7535C15.4353 30.7772 15.4067 30.8256 15.3713 30.8614C15.3189 30.9144 15.3172 30.9412 15.3607 31.0102C15.4012 31.0737 15.4029 31.1285 15.3675 31.2368C15.3253 31.3645 15.3308 31.3865 15.4208 31.4547C15.4758 31.4962 15.5445 31.5177 15.5739 31.5031C15.6034 31.488 15.7096 31.5026 15.8098 31.5354C15.9101 31.5682 15.992 31.6092 15.9911 31.6273C15.9903 31.645 15.9613 31.6597 15.9259 31.6597C15.8909 31.6597 15.8188 31.6834 15.7659 31.7132C15.713 31.7426 15.6038 31.7861 15.3764 31.8539L15.4912 31.9294C15.6025 32.0023 15.6059 32.0019 15.6059 31.9186C15.6059 31.8418 15.6273 31.8345 15.7979 31.8539C15.98 31.8742 15.9898 31.8699 15.9898 31.7676C15.9898 31.7042 16.0363 31.6196 16.1025 31.5626C16.1647 31.5091 16.2513 31.4267 16.2953 31.3792C16.3742 31.2942 16.3755 31.2976 16.3746 31.6058C16.3742 31.8271 16.3895 31.9186 16.4271 31.9191C16.4565 31.9195 16.5427 31.9001 16.619 31.8759C16.7406 31.8375 16.7576 31.8138 16.7576 31.6813C16.7576 31.5609 16.7773 31.5246 16.8536 31.5044C16.9317 31.4832 16.9377 31.4716 16.8856 31.4413C16.831 31.4094 16.834 31.3943 16.9069 31.3391C16.9539 31.3033 17.0021 31.2739 17.0136 31.2739C17.0255 31.2739 17.0575 31.2295 17.136 31.0771L17.1377 31.185C17.1386 31.2441 17.1492 31.283 17.162 31.2713C17.1744 31.2592 17.203 31.1721 17.2252 31.0771C17.2533 30.9589 17.2508 30.8501 17.168 30.5593L17.139 30.7103C17.1134 30.8441 17.1096 30.848 17.1044 30.7427C17.1015 30.6737 17.0451 30.5697 16.9709 30.4946C16.9005 30.4234 16.8238 30.3651 16.8003 30.3651C16.7768 30.3651 16.7576 30.3263 16.7576 30.2788C16.7576 30.2076 16.8016 30.1843 17.0029 30.1459C17.1377 30.1204 17.4401 30.0518 17.6748 29.9931C17.9094 29.9344 18.3223 29.8119 18.5919 29.7213C18.8619 29.6302 19.2935 29.4649 19.5516 29.354C19.8097 29.2427 20.1936 29.0589 20.4047 28.9454C20.6159 28.8314 20.9712 28.6247 21.1939 28.4853C21.417 28.3464 21.8009 28.0784 22.047 27.8903C22.2935 27.7017 22.6386 27.4195 22.8139 27.2624C22.9893 27.1057 23.284 26.8222 23.4687 26.6323C23.653 26.4425 23.9622 26.0929 24.1555 25.8556C24.3491 25.6182 24.6038 25.2881 24.7215 25.122C24.8392 24.9558 25.0513 24.6257 25.192 24.3884C25.3328 24.151 25.5397 23.7721 25.6514 23.5469C25.7632 23.3212 25.9556 22.8845 26.0788 22.5759C26.2021 22.2674 26.3715 21.7914 26.4555 21.5187C26.5395 21.2455 26.6449 20.8571 26.6901 20.6556C26.7353 20.4537 26.7839 20.2159 26.8245 19.9652L27.123 20.1378L27.1239 19.9328C27.1239 19.8197 27.1384 19.7507 27.1559 19.7787C27.173 19.8068 27.2736 19.8495 27.379 19.8737C27.5671 19.9168 27.5744 19.9147 27.7271 19.758C27.8435 19.6389 27.8879 19.6148 27.9024 19.6631C27.9177 19.7144 27.9446 19.7058 28.0355 19.6199C28.1093 19.5496 28.1489 19.4667 28.1494 19.3826C28.1494 19.3092 28.1122 19.2156 28.0628 19.1668C28.0086 19.1125 27.9527 19.0926 27.9122 19.1129C27.8708 19.1336 27.8179 19.1112 27.762 19.0482C27.6985 18.9761 27.6763 18.8915 27.6767 18.7245C27.6772 18.5838 27.6575 18.4889 27.6243 18.4738C27.5948 18.4608 27.4916 18.5286 27.3948 18.6248C27.2979 18.7211 27.1968 18.8 27.1708 18.8C27.1401 18.8 27.1205 18.6732 27.1158 18.444C27.112 18.2481 27.1021 18.1605 27.0945 18.2498C27.0868 18.3387 27.0612 18.4116 27.0377 18.4116C27.0117 18.4116 26.9951 18.2209 26.9951 17.9262C26.9951 17.6591 26.975 17.2172 26.9507 16.9444C26.9264 16.6713 26.8688 16.2294 26.8228 15.9627C26.7767 15.6956 26.6897 15.2878 26.6287 15.0565C26.5681 14.8247 26.4606 14.451 26.3898 14.2258C26.319 14.0001 26.2055 13.6747 26.014 13.1901L26.2725 12.7694C26.415 12.5376 26.6598 12.0914 26.8164 11.7777L27.1017 11.2068ZM20.1522 19.9889C20.1573 19.9958 20.1249 20.1632 20.0801 20.3609C20.0353 20.5585 19.9355 20.8563 19.8579 21.0224C19.7807 21.1886 19.6519 21.4216 19.5717 21.5403C19.4915 21.6589 19.2914 21.9097 19.1263 22.0978C18.9617 22.2859 18.765 22.5091 18.6895 22.5941C18.6145 22.6791 18.5513 22.7386 18.5496 22.727C18.5479 22.7149 18.6524 22.5695 18.7821 22.4033C18.9996 22.1246 19.0184 22.0827 19.024 21.8639C19.0291 21.6581 19.0333 21.6468 19.0837 21.9286L19.3392 21.5623C19.4795 21.3607 19.5874 21.1666 19.5789 21.1307C19.5708 21.0949 19.5371 21.0267 19.5043 20.9793C19.4454 20.8943 19.4445 20.8943 19.445 20.9901C19.445 21.082 19.4394 21.0802 19.3383 20.9577C19.2364 20.8334 19.2347 20.8243 19.3063 20.7419C19.3477 20.6945 19.419 20.6608 19.4654 20.6664C19.5299 20.6746 19.5832 20.6142 19.8225 20.1594L19.8502 20.4476L19.9965 20.212C20.0771 20.0825 20.1471 19.982 20.1522 19.9889ZM18.28 22.8996C18.2941 22.9402 18.2033 23.0597 17.766 23.4822L18.0083 23.2124C18.1418 23.064 18.2523 22.9181 18.254 22.8888C18.2562 22.8564 18.2664 22.8608 18.28 22.8996ZM7.6186 28.1211C7.64804 28.1211 7.67917 28.1354 7.68771 28.1535C7.69624 28.1712 7.8835 28.3002 8.1036 28.44C8.32371 28.5799 8.66709 28.7861 8.86629 28.8979C9.06592 29.0101 9.44001 29.1948 9.69808 29.3083C9.95615 29.4222 10.3691 29.5875 10.6152 29.6759C10.8617 29.7644 11.3083 29.9021 12.1529 30.1278L12.1512 30.3004C12.1499 30.4631 12.1465 30.4669 12.0971 30.3724C12.068 30.3176 11.9819 30.2348 11.7669 30.1062L11.7635 30.2464C11.7618 30.3232 11.7524 30.3621 11.7422 30.3327C11.7323 30.303 11.6526 30.249 11.5643 30.2128C11.4764 30.1765 11.3996 30.1476 11.3937 30.148C11.3881 30.1485 11.383 30.227 11.383 30.4946L11.255 30.3651C11.1846 30.2939 11.0985 30.2356 11.0631 30.2356C11.0119 30.2356 10.9991 30.3004 10.9991 30.5593C10.9991 30.7604 10.9833 30.8747 10.9564 30.8614C10.933 30.8493 10.9253 30.7863 10.9394 30.7211C10.959 30.6322 10.9372 30.5671 10.8541 30.4622C10.7931 30.385 10.7146 30.322 10.6792 30.322C10.634 30.322 10.6156 30.3686 10.6156 30.4838C10.616 30.6344 10.6118 30.6396 10.5567 30.5593C10.5077 30.4877 10.451 30.4734 10.2257 30.4756C10.0764 30.4773 9.93013 30.4915 9.9007 30.5079C9.87169 30.5243 9.84738 30.6154 9.84738 30.7103C9.84738 30.8053 9.8333 30.8834 9.81539 30.8842C9.7979 30.8847 9.72112 30.9429 9.64476 31.0137C9.51296 31.1354 9.50869 31.1496 9.55305 31.3037C9.57907 31.3926 9.63154 31.5005 9.67036 31.5436C9.73818 31.6191 9.73434 31.6196 9.57012 31.5579C9.47627 31.5229 9.27494 31.4422 9.12223 31.3788C8.96995 31.3149 8.55746 31.1142 8.20598 30.9326C7.85449 30.7509 7.31703 30.4359 7.01161 30.2326C6.70619 30.0294 6.25575 29.6992 5.56472 29.1352L5.73108 29.0705C5.82279 29.0347 6.15806 28.8772 6.47585 28.7201C6.79364 28.563 7.16858 28.3641 7.30935 28.2778C7.45011 28.1919 7.5896 28.1211 7.6186 28.1211ZM13.2349 30.2916C13.5642 30.3541 13.5963 30.2591 13.5848 30.7916L13.1525 30.8958C13.138 30.765 13.1928 30.3626 13.1731 30.3333C13.1492 30.2973 13.1894 30.2916 13.2349 30.2916Z" fill="white"/>
<path d="M12.918 3.57045C13.1875 3.54413 13.5143 3.51522 13.6431 3.50658C13.7719 3.49752 14.2714 3.49795 14.7522 3.50702C15.2329 3.51651 15.8569 3.55146 16.1385 3.58556C16.42 3.61921 16.8325 3.67877 17.0556 3.7176C17.2787 3.75644 17.701 3.84577 17.994 3.91697C18.2871 3.98774 18.8343 4.14914 19.2097 4.27601C19.5851 4.40288 20.1417 4.61994 20.4467 4.75889C20.7517 4.89741 21.203 5.11965 21.4491 5.25213C21.6953 5.38505 22.0792 5.60729 22.7075 5.99869L22.217 6.24078C21.9469 6.37369 21.0781 6.85122 20.4996 7.16667L20.9799 6.63088L20.7986 6.69647C20.6988 6.73272 20.6127 6.76164 20.6067 6.7612C20.6007 6.76077 20.5969 6.69734 20.5977 6.62009C20.5994 6.50876 20.4907 6.7945 20.4467 6.83333C20.4164 6.86052 20.4271 6.58989 20.2121 6.63088L20.088 6.66667L20.1174 6.35643C20.0637 6.40692 20.0586 6.6818 20.0057 6.69647C19.9965 6.69899 19.9917 6.70496 19.9904 6.71346C20.0881 6.75468 20.2132 6.8437 20.2121 6.91667C20.2106 7.02794 19.9795 6.7839 19.9904 6.71346C19.9401 6.69228 19.8971 6.68373 19.8822 6.69647C19.8519 6.7228 19.7733 6.59334 19.6969 6.62009C19.5604 6.66886 19.295 6.61794 19.295 6.36117V6.22093C19.2131 6.25631 19.1265 6.28566 19.1031 6.28566C19.0796 6.28566 18.8737 6.43151 18.8737 6.26408L18.6765 6.19935H18.5165V6.00602C18.4287 6.04227 18.3421 6.07162 18.3246 6.07075C18.3071 6.07032 18.071 6.23819 18.071 6.07075L18.1113 5.91972C18.0115 5.95596 17.9253 5.98488 17.9194 5.98445C17.9134 5.98401 17.9087 5.93525 17.9087 5.8757C17.9087 5.77472 17.9027 5.7717 17.8127 5.82823C17.7598 5.86103 17.6737 5.89987 17.6208 5.91454C17.5402 5.93611 17.4741 6.03184 17.4741 5.83333L17.2271 5.95833L17.0419 5.91454C17.0293 5.91454 17.0015 5.90758 16.9724 5.89744C16.9414 5.89048 16.8823 5.87563 16.7996 5.85412C16.7762 5.85412 16.8721 5.8728 16.7743 5.85417C16.7071 5.84135 16.8978 5.87653 16.5479 5.8125C16.5008 5.81097 16.5386 5.81097 16.4797 5.81097C16.3944 5.81097 16.2803 5.79241 16.1363 5.77083H16.0951C16.0128 5.77083 16.022 5.76782 16.0105 5.76782C15.999 5.76782 15.9304 5.75 15.9304 5.75H15.8481C15.7777 5.78539 15.7272 5.73966 15.6835 5.72917C15.6571 5.72284 15.6217 5.70833 15.6217 5.70833C15.6011 5.70833 15.5806 5.71047 15.56 5.70833C15.548 5.70709 15.4888 5.71387 15.4773 5.70136C15.4658 5.68885 15.3169 5.67935 15.1467 5.68022C14.9765 5.68065 14.8375 5.66684 14.8375 5.64914C14.8375 5.63145 14.5832 5.63102 14.2723 5.64871C13.908 5.66943 13.7032 5.66554 13.6964 5.63792C13.69 5.61246 13.664 5.61074 13.6324 5.63275C13.603 5.65389 13.5168 5.67806 13.4409 5.68669C13.365 5.69575 13.3036 5.68367 13.3044 5.65993C13.3053 5.63318 13.2844 5.6349 13.2502 5.66382C13.22 5.68971 13.0033 5.73675 12.7687 5.76868C12.534 5.80061 12.2943 5.82953 12.2355 5.83341C12.177 5.83686 12.0618 5.86318 11.9795 5.89167C11.8972 5.92058 11.811 5.94 11.7876 5.93525C11.7641 5.9305 11.7159 5.93827 11.6809 5.95208C11.6459 5.96589 11.396 6.03796 11.1264 6.11175C10.8568 6.18597 10.4631 6.31155 10.252 6.39181C10.0408 6.47165 9.77676 6.57737 9.66543 6.627C9.5541 6.67662 9.46367 6.70252 9.46452 6.68482C9.4658 6.66713 9.44191 6.67576 9.4112 6.70381C9.38092 6.73229 9.17404 6.84578 8.95094 6.95626C8.72785 7.06673 8.38277 7.25488 8.18314 7.37398C7.98351 7.49308 7.76767 7.62729 7.70326 7.67174C7.63885 7.71619 7.57145 7.74898 7.55396 7.7438C7.53647 7.73906 7.45969 7.79731 7.38334 7.87326C7.30698 7.94965 7.22551 8.01179 7.20205 8.01179C7.17859 8.01179 7.16481 8.02132 7.01845 8.125C7.00242 8.13884 6.99099 8.14902 6.98303 8.15636C6.94274 8.19354 6.99152 8.15793 6.98303 8.15636C6.98052 8.1559 6.97301 8.15842 6.95671 8.16667C6.87438 8.25 6.90303 8.23014 6.85782 8.25992C6.79213 8.30307 6.85782 8.25992 6.66856 8.39583C6.6414 8.41534 6.62023 8.4302 6.60397 8.44131C6.57299 8.48211 6.59153 8.43484 6.52937 8.49899C6.46538 8.56544 6.41269 8.61398 6.33925 8.6875C6.20458 8.82231 6.21864 8.77021 6.19517 8.8125C6.17171 8.85522 6.13565 8.86967 5.95308 9.04746C5.77094 9.22569 5.6225 9.30638 5.6225 9.30638C5.6225 9.30638 5.58837 9.32556 5.54188 9.37111C5.49539 9.41667 5.39045 9.5538 5.33073 9.625C5.26205 9.70656 5.21321 9.74777 5.14549 9.8125C5.1019 9.85417 5.12491 9.85417 5.07053 9.89974C4.97583 10.0482 4.83676 10.2251 4.77502 10.3125C4.73085 10.375 4.81331 10.1725 4.78772 10.2251C4.7617 10.2778 4.59364 10.4905 4.41448 10.6981C4.2349 10.9056 4.08731 11.0515 4.08646 11.0217C4.0856 10.992 4.05361 11.026 4.01607 11.0972C3.97811 11.1684 3.89749 11.291 3.83649 11.3695C3.77549 11.4481 3.71578 11.4917 3.70426 11.4666C3.69274 11.4412 3.6407 11.5132 3.58951 11.6259C3.5379 11.7385 3.53423 11.9496 3.39603 12.0833L3.27253 12.125C3.27296 11.9968 3.27253 12.125 3.21079 12C3.16771 12.0949 3.09001 12.1674 3.00257 12.2624C2.9147 12.3573 2.861 12.7533 2.63449 13.0208L2.55084 13C2.32448 13.1295 2.40809 13.125 2.36693 12.9583C2.30764 13.077 2.30088 13.0016 2.17035 13.1686L2.14053 13.3542C2.13797 13.2856 2.12471 13.0624 2.05902 13.2549C2.00271 13.421 1.92252 13.6303 1.88114 13.7197C1.83379 13.8224 1.79583 13.8625 1.77877 13.8276C1.76256 13.7948 1.7408 13.8245 1.72459 13.9022C1.70924 13.9734 1.63544 14.2215 1.55952 14.4533C1.48402 14.6854 1.41278 14.874 1.40084 14.8727C1.38889 14.8714 1.30315 15.1381 1.20974 15.4652C1.11632 15.7923 1.02546 16.0646 1.00712 16.0707C0.989206 16.0767 0.974276 16.1056 0.974703 16.1354C0.975129 16.1652 0.946123 16.2912 0.910719 16.4159C0.875314 16.5406 0.798534 16.7007 0.739668 16.7719C0.657342 16.872 0.633028 16.9501 0.633028 17.1171C0.633028 17.2358 0.618525 17.3329 0.601036 17.3333C0.583548 17.3333 0.496956 17.2751 0.249125 17.074V18.196C0.249125 19.094 0.238461 19.3072 0.195805 19.2627C0.166372 19.2325 0.117318 19.1984 0.0861788 19.1872C0.0435228 19.1721 0.0239011 18.9809 0.00555902 18.4117C-0.00766433 17.9858 0.00342622 17.3743 0.0311526 17.0092C0.0580259 16.6532 0.116891 16.1194 0.162106 15.8225C0.206895 15.5261 0.29306 15.0596 0.353632 14.7869C0.414203 14.5141 0.541318 14.0286 0.636014 13.708C0.730711 13.3874 0.914985 12.8536 1.04551 12.5213C1.17604 12.189 1.41193 11.6647 1.56933 11.3562C1.72715 11.0476 1.99247 10.5716 2.15969 10.2989C2.3269 10.0262 2.63231 9.57609 2.83834 9.29905C3.0448 9.022 3.41505 8.56846 3.6616 8.29056C3.90773 8.01308 4.30144 7.61089 4.53605 7.39728C4.77066 7.18368 5.13537 6.86822 5.34651 6.69691C5.55766 6.52516 5.94157 6.23905 6.19963 6.06083C6.4577 5.88304 6.84161 5.6349 7.05275 5.50976C7.2639 5.38462 7.6478 5.17575 7.90587 5.045C8.16394 4.91424 8.58624 4.71962 8.8443 4.61217C9.10237 4.50472 9.56306 4.33211 9.86805 4.22854C10.173 4.12497 10.6243 3.9899 10.8705 3.92906C11.1166 3.86778 11.5679 3.77284 11.8729 3.71804C12.1779 3.6628 12.6484 3.59634 12.918 3.57045Z" fill="#FEFEFE"/>
<path d="M25.8001 6.18511C26.1635 6.10053 26.5188 6.02372 26.5892 6.01379C26.6596 6.0043 26.7892 5.99351 26.8771 5.99006C26.965 5.9866 27.09 6.00991 27.1544 6.04227C27.2188 6.07464 27.2862 6.13289 27.3037 6.17173C27.3212 6.21057 27.3357 6.31543 27.3357 6.40433C27.3357 6.49322 27.3054 6.74092 27.2687 6.95453C27.2324 7.16814 27.1369 7.60485 27.0567 7.92548C26.9769 8.24611 26.8967 8.55207 26.8784 8.60601C26.8601 8.66038 26.7679 8.98878 26.7385 9C26.7091 9.01165 26.7385 8.71605 26.7385 8.68066C26.7385 8.62327 26.7201 8.62327 26.5785 8.68153C26.4907 8.71777 26.4041 8.74712 26.3866 8.74625C26.3691 8.74582 26.3546 8.69706 26.3546 8.63751C26.3546 8.56199 26.3256 8.52186 26.2586 8.50373C26.2057 8.48992 26.1195 8.48992 26.0667 8.50373C25.9882 8.52488 25.9703 8.51193 25.969 8.43253C25.9668 8.3432 25.9523 8.34968 25.7877 8.50805C25.629 8.66038 25.6064 8.67031 25.5945 8.59436C25.5817 8.51539 25.5672 8.52013 25.4238 8.64916C25.3377 8.7264 25.2524 8.78984 25.2349 8.78941C25.2174 8.78898 25.2029 8.7592 25.2029 8.72382C25.2029 8.67764 25.1564 8.69663 25.0429 8.78898C24.955 8.86018 24.7776 9.0625 24.7601 9.0625C24.7426 9.06207 24.819 8.85975 24.819 8.65909L24.6697 8.78855C24.5878 8.85975 24.5012 8.91801 24.4777 8.91801C24.4543 8.91801 24.4351 8.87917 24.4351 8.8317C24.4351 8.75143 24.4299 8.75014 24.3604 8.81573C24.3195 8.85457 24.2329 8.91283 24.1685 8.94519C24.0601 9 24.0512 8.99784 24.0512 8.91801C24.0512 8.83947 24.0426 8.83688 23.9552 8.89211C23.9023 8.92491 23.8161 8.96375 23.7632 8.97842C23.6903 8.99827 23.6677 8.98619 23.669 8.92879C23.6707 8.87097 23.6579 8.8645 23.6156 8.90118C23.5854 8.9275 23.4983 8.96159 23.422 8.97669C23.3081 8.99957 23.2834 8.99093 23.2829 8.92879C23.2825 8.86967 23.2526 8.8563 23.1443 8.86708C23.0684 8.87442 22.9677 8.85328 22.9208 8.81962C22.8739 8.78596 22.7634 8.74582 22.6755 8.73029C22.5241 8.70353 22.5155 8.69361 22.516 8.54041C22.5164 8.38938 22.5045 8.37384 22.153 8.24136L22.0021 7.66667L22.4196 7.43483C22.5778 7.35456 22.9476 7.18195 23.2407 7.05076C23.5337 6.92001 24.081 6.7064 24.4564 6.57608C24.8318 6.44575 25.4366 6.26969 25.8001 6.18511Z" fill="#FEFEFE"/>
<path d="M27.0035 12.0833C27.0031 11.6501 27.0311 11.3479 27.0447 11.3125C27.0588 11.2771 27.1851 11.0321 27.2005 11.0317C27.2162 11.0312 27.357 11.2785 27.5131 11.5819C27.6692 11.8848 27.8684 12.3077 27.9555 12.5213C28.0429 12.7349 28.1892 13.1332 28.2809 13.4059C28.3726 13.6787 28.5126 14.1641 28.5919 14.4848C28.6712 14.8054 28.7659 15.2227 28.8026 15.4126C28.8389 15.6024 28.902 15.9908 28.9425 16.2756C28.995 16.6462 28.9961 17.2473 28.9997 19.0894L29 19.2292L28.2494 20.7292L28.4649 18.5417C28.4525 17.9367 28.153 18.2859 28.1487 18.3333C28.1448 18.3761 27.9955 18.0231 27.9298 17.9961C27.9005 18.0228 27.8852 18.0317 27.9115 18C27.9164 17.9942 27.9226 17.9932 27.9298 17.9961C27.9816 17.949 28.0768 17.8461 28.0621 17.8125C28.0467 17.7771 28.3586 17.5029 28.3287 17.4731C28.2988 17.4434 27.9115 17.6487 27.9115 17.625C27.9115 17.6013 28.2694 17.3325 28.2634 17.332C28.2575 17.3312 27.5455 17.7784 27.4636 17.8125C27.3352 17.866 27.4675 17.6772 27.3941 17.625C27.3528 17.5956 27.4736 17.5125 27.5787 17.4552C27.5758 17.4542 27.573 17.4529 27.5703 17.4516C27.5349 17.4334 27.5063 17.4382 27.5063 17.4624C27.5063 17.4861 27.4871 17.5055 27.4636 17.5055C27.4402 17.5055 27.4001 17.4231 27.3745 17.3221C27.3489 17.2211 27.3391 17.0563 27.3532 16.9553C27.3668 16.8543 27.3975 16.7719 27.421 16.7719C27.4444 16.7719 27.4709 16.7378 27.4798 16.6964C27.4859 16.6698 27.491 16.432 27.4965 16.37C27.4354 16.3519 27.3532 16.346 27.3532 16.3333C27.23 15.6458 27.2302 15.8129 27.2711 15.8125C27.3121 15.8116 27.7277 15.8978 27.8902 16.0833L28.3087 16.6209C28.3411 16.4547 28.3752 16.3089 28.3846 16.2972C28.394 16.2856 28.4409 16.3145 28.4887 16.3619C28.5381 16.4111 28.5753 16.5035 28.5748 16.5777C28.5744 16.6489 28.5927 16.7365 28.6154 16.7719C28.6435 16.8163 28.6567 16.7111 28.658 16.0383H28.4874C28.3449 16.0383 28.3133 16.0223 28.2959 15.9412C28.2848 15.8877 28.275 15.6452 28.2745 15.4018C28.2741 15.085 28.2587 14.9551 28.2208 14.9444C28.1914 14.9362 28.1056 14.8054 28.0301 14.6531C27.9188 14.4287 27.7457 15.0001 27.7239 14.4167L27.6901 13.6019C27.5455 13.4957 27.511 13.4439 27.5089 13.3304C27.5071 13.2294 27.4534 13.1272 27.1254 12.7371L27.0035 12.0833Z" fill="#FEFEFE"/>
<path d="M27.0085 18.1458C27.026 18.1458 27.0836 18.3388 27.0883 18.2499C27.0934 18.161 27.2643 17.9291 27.2711 18.125C27.2792 18.3511 27.1399 18.8001 27.1702 18.8001C27.1962 18.8001 27.2969 18.7216 27.3941 18.6249C27.4909 18.5287 27.5942 18.4609 27.6236 18.4739C27.6564 18.489 27.6765 18.5843 27.6761 18.7246C27.6756 18.892 27.6978 18.9766 27.7614 19.0482C27.8173 19.1112 27.8702 19.1341 27.9115 19.113C27.9516 19.0927 28.0079 19.1125 28.0621 19.1669C28.1112 19.2157 28.1487 19.3093 28.1487 19.3827C28.1483 19.4668 28.1086 19.5497 28.0348 19.62C27.9439 19.7063 27.9171 19.715 27.9017 19.6632C27.8872 19.6148 27.8428 19.639 27.7264 19.7581C27.5737 19.9148 27.5664 19.9169 27.3783 19.8738C27.2725 19.8496 27.1723 19.8069 27.1552 19.7788C27.1377 19.7508 27.1232 19.8202 27.1224 20.1379L26.983 20.1875C26.8746 20.1206 26.7909 20.2182 26.7977 20.125C26.8028 20.0594 26.8942 19.5048 26.9321 19.2316C26.9697 18.9585 27.0042 18.6624 27.0085 18.5736C27.0123 18.4847 26.991 18.1458 27.0085 18.1458Z" fill="#FEFEFE"/>
<path d="M20.2117 19.1669L20.2121 18.854C20.2121 18.6819 20.2241 18.5412 20.239 18.5412C20.2535 18.5412 20.2556 18.8178 20.2437 19.1561C20.2262 19.6433 20.204 19.8116 20.1362 19.9652C20.0893 20.0723 20.0005 20.2276 19.8269 20.4615L19.8265 20.3105C19.8257 20.1603 19.8257 20.1603 19.6886 20.4162L19.6875 20.4184C19.5829 20.6143 19.5288 20.6747 19.4648 20.6669C19.4183 20.6609 19.3466 20.695 19.3057 20.7424C19.234 20.8249 19.2353 20.8335 19.3377 20.9578C19.4388 21.0803 19.4443 21.082 19.4439 20.9901C19.4435 20.8948 19.4447 20.8943 19.5032 20.9793C19.536 21.0268 19.5697 21.095 19.5783 21.1308C19.5868 21.1671 19.4789 21.3613 19.0826 21.9287L19.0557 21.7777C19.0327 21.6474 19.0284 21.659 19.0233 21.864C19.0182 22.0897 19.0037 22.1195 18.7264 22.4681C18.5656 22.6697 18.4018 22.8638 18.3617 22.8997C18.2969 22.9571 18.2892 22.9571 18.2917 22.8997C18.2935 22.8638 18.2397 22.9126 18.1723 23.0075C18.1049 23.1025 17.9078 23.3165 17.7342 23.4831C17.5602 23.6497 17.3269 23.849 17.2155 23.9254C17.0897 24.0122 16.9404 24.073 16.821 24.0864C16.6529 24.1054 16.6149 24.0933 16.5147 23.9893C16.4106 23.881 16.4029 23.8503 16.4268 23.6333C16.4409 23.5029 16.5019 23.2647 16.562 23.1046C16.6222 22.9445 16.6909 22.8134 16.7143 22.8134C16.7378 22.8134 16.757 22.765 16.757 22.7055C16.757 22.6174 16.7924 22.5838 17.1405 22.4466L17.1409 22.1984C17.1409 21.9512 17.1413 21.9503 17.3009 21.8907C17.396 21.8554 17.4826 21.7854 17.5141 21.7181C17.5457 21.6512 17.6152 21.5947 17.6848 21.58C17.7492 21.5662 17.8259 21.5468 17.8554 21.5369C17.8848 21.527 17.9087 21.4653 17.9087 21.4001C17.9087 21.3039 17.9454 21.2611 18.1024 21.1735C18.2854 21.0713 18.2956 21.0557 18.2943 20.8822C18.293 20.7273 18.3075 20.695 18.3886 20.6747C18.4743 20.6531 18.4824 20.6307 18.4632 20.4602C18.4487 20.3312 18.459 20.2621 18.4952 20.247C18.5247 20.2345 18.5485 20.1952 18.5485 20.1594C18.5485 20.1236 18.5677 20.0947 18.5912 20.0947C18.6147 20.0947 18.6257 20.0705 18.6155 20.0408C18.6057 20.011 18.6134 19.9286 18.6334 19.8574C18.657 19.7722 18.6698 19.7578 18.6718 19.8142C18.6744 19.8893 18.6927 19.8962 18.8143 19.8677C18.8911 19.8496 18.9777 19.8349 19.0071 19.8354C19.0442 19.8358 19.0604 19.7512 19.0604 19.5553C19.0604 19.3236 19.0732 19.2718 19.1351 19.2571C19.176 19.2476 19.2626 19.2282 19.327 19.2139C19.4234 19.1932 19.4443 19.1652 19.4443 19.059C19.4443 18.9727 19.4656 18.9296 19.5083 18.9296C19.5437 18.9296 19.5893 18.8955 19.6107 18.854C19.638 18.7997 19.6738 18.7876 19.7386 18.8109C19.7907 18.8299 19.8325 18.8251 19.8389 18.7992C19.8453 18.7738 19.8896 18.7828 19.9455 18.8208C19.9984 18.8571 20.0799 18.9494 20.2117 19.1669Z" fill="#FEFEFE"/>
<path d="M27.4675 23.6764C27.4888 23.6764 27.5063 23.657 27.5063 23.6333C27.5063 23.6095 27.5161 23.5901 27.5276 23.5901C27.5391 23.5901 27.5826 23.6069 27.6236 23.6277C27.6645 23.6484 27.7238 23.7209 27.7554 23.7895C27.8092 23.9069 27.7972 23.9444 27.534 24.4748C27.3809 24.7833 27.1092 25.2688 26.9296 25.5536C26.7504 25.8384 26.4962 26.2173 26.3648 26.3951C26.2339 26.5733 25.931 26.9518 25.6921 27.2366C25.4533 27.5214 24.9811 28.0263 24.6419 28.3586C24.3033 28.6908 23.9454 29.0257 23.8468 29.1029C23.7479 29.1802 23.6673 29.2333 23.6673 29.2216C23.6673 29.21 23.5811 29.2488 23.2834 29.4158L23.2872 29.1353L22.9208 29.5038L22.7637 29.8659H22.5257C22.5163 29.8817 22.5117 29.8852 22.5177 29.8659H22.5257C22.5627 29.804 22.6739 29.5532 22.5177 29.7395L22.4302 29.9768L22.3314 29.9167C22.1423 29.9867 22.1158 29.9777 22.1453 29.9477C22.1438 29.9461 22.1428 29.944 22.1423 29.9414C22.1359 29.9112 22.0583 29.9444 21.7691 30.1563L21.7422 30.0342C21.7273 29.9669 21.7128 29.9462 21.7102 29.9876C21.7072 30.029 21.6279 30.1261 21.5332 30.2034C21.4389 30.2806 21.3621 30.3777 21.3626 30.4191C21.3634 30.48 21.3267 30.4946 21.1719 30.4946C21.0085 30.4946 20.9799 30.5076 20.9799 30.5809C20.9799 30.6552 20.9663 30.6608 20.884 30.6224C20.8311 30.5973 20.7449 30.5003 20.692 30.4066C20.6391 30.3125 20.596 30.1874 20.596 30.1278C20.596 30.0687 20.6246 30.01 20.66 29.9984C20.6954 29.9867 20.7816 29.9768 20.852 29.9768C20.9748 29.9768 20.9804 29.9682 20.9906 29.7723C20.9991 29.6053 21.017 29.5651 21.0866 29.5539C21.1335 29.5466 21.2005 29.5306 21.2359 29.5185C21.2713 29.5064 21.3097 29.5025 21.3212 29.5103C21.3327 29.5177 21.3523 29.4184 21.3638 29.2902C21.3847 29.0611 20.9612 28.948 21.3212 28.8125L21.7482 28.5851C21.7477 28.346 21.7631 28.2507 21.8011 28.2507C21.8305 28.2511 21.7599 28.209 22.0433 28.1875L22.1874 28.125C22.1874 28.0538 22.6222 27.705 22.4729 27.9339C22.6826 27.8091 22.2152 28.2688 22.2916 28.293C22.368 28.3171 22.4302 28.3564 22.4302 28.3801C22.4302 28.4039 22.4494 28.4233 22.4729 28.4233C22.4964 28.4233 22.5155 28.3844 22.5155 28.337C22.5155 28.2794 22.7068 28 22.7637 28C22.8106 28 22.6393 27.9997 22.8048 28.1667L22.8666 28.0417C22.8666 27.9036 23.0967 27.9253 23.1547 27.9339C23.1948 27.94 23.0935 28.236 23.262 28.5579L23.2727 28.318C23.2795 28.1613 23.3017 28.0776 23.3367 28.0768C23.3661 28.0759 23.4476 28.1048 23.518 28.1411C23.6438 28.2058 23.6464 28.2049 23.6673 28.0884C23.6809 28.0138 23.7197 27.9646 23.7739 27.9555C23.8208 27.9473 23.9023 27.9374 23.9552 27.9339C24.032 27.9283 24.0512 27.9011 24.0507 27.7976C24.0503 27.6806 24.0691 27.6629 24.2427 27.6142C24.389 27.5732 24.4351 27.5395 24.4351 27.4739C24.4351 27.4066 24.4777 27.3781 24.627 27.3445C24.8023 27.3052 24.819 27.2901 24.819 27.1718C24.819 27.0558 24.8377 27.0376 25.0003 26.9949C25.1001 26.9686 25.1914 26.9345 25.2029 26.9194C25.2144 26.9039 25.301 26.8525 25.3948 26.805C25.5086 26.7475 25.569 26.6864 25.5761 26.6216C25.5838 26.5526 25.6427 26.4995 25.7787 26.4382C25.9651 26.3545 25.9707 26.3463 25.9707 26.1577C25.9707 25.9942 25.9903 25.948 26.0948 25.8665C26.1784 25.8009 26.2411 25.6921 26.2872 25.532C26.3247 25.4017 26.3554 25.2511 26.355 25.1976C26.3546 25.1441 26.4403 24.9792 26.5448 24.8308C26.6745 24.6474 26.7359 24.5162 26.7368 24.4208C26.7376 24.3423 26.791 24.1999 26.8571 24.0972C26.9223 23.9962 27.0038 23.8572 27.1011 23.663L27.1437 23.9051L27.2862 23.7908C27.3647 23.7278 27.4461 23.6764 27.4675 23.6764Z" fill="#FEFEFE"/>
<path d="M10.9348 30.0535C11.0853 30.0601 11.4106 30.0724 11.7701 30.2422L10.9925 29.875L11.7523 30.0833C11.7757 30.0989 11.8156 30.1183 11.8599 30.1393C11.8568 30.1162 11.8551 30.0906 11.8552 30.0625L12.1501 30.125C12.19 30.1378 12.2902 30.1475 12.308 30.1565C12.3207 30.163 12.4727 30.1982 12.4727 30.1982C12.4727 30.1982 12.6228 30.2051 12.854 30.2409C13.6047 30.3333 13.1718 30.3056 13.1952 30.3285C13.2187 30.3509 13.2494 30.4804 13.2895 30.8614L13.2955 30.5917C13.3019 30.322 13.3019 30.322 13.4298 30.322C13.4752 30.322 13.5646 30.328 13.6253 30.337C13.6368 30.337 13.6632 30.3331 13.7899 30.3544C13.8723 30.3682 14.2427 30.3813 14.2427 30.4167C14.2427 30.4525 14.3646 30.6398 14.3868 30.6458C14.3976 30.6488 14.3001 30.6515 14.205 30.6945C14.2254 30.7918 14.2403 30.8927 14.2403 30.937C14.2403 30.9905 14.2019 31.0582 14.155 31.088C14.0768 31.1375 14.0702 31.1321 14.069 30.8084C14.0415 30.8544 14.0276 30.9139 14.0381 30.9909L13.6892 31.1635L13.6773 31.008L13.5096 31.0522C13.4302 31.0863 13.3513 31.1199 13.3338 31.1277C13.3164 31.1355 13.3014 31.0789 13.301 31.0017C13.301 30.9227 13.2869 30.8843 13.269 30.9141C13.2519 30.943 13.1658 31.006 13.0779 31.0543C13.0499 31.0697 13.0267 31.0823 13.0077 31.0922C13.0406 31.1368 13.0602 31.1822 13.0284 31.2067C12.952 31.2654 12.9664 31.506 12.6785 31.4167C12.7704 31.5662 12.305 31.5508 12.308 31.3333L12.1715 31.2731L12.1501 30.9693L11.959 31.1743C11.7816 31.365 11.7684 31.3719 11.7692 31.2714C11.7701 31.1683 11.762 31.1717 11.4037 31.532L11.361 31.2067L11.2817 31.3793C11.2382 31.4742 11.1708 31.5765 11.1324 31.6067C11.094 31.6365 11.0479 31.6611 11.0304 31.6606C11.0129 31.6602 10.9959 31.5869 10.9925 31.498C10.9895 31.4091 10.9797 31.3797 10.9711 31.4332C10.9626 31.4867 10.8837 31.5795 10.7958 31.6391C10.7703 31.6565 10.7488 31.6709 10.7306 31.6825C10.7597 31.7109 10.7638 31.7526 10.682 31.7917C10.492 31.8827 10.22 31.7903 10.0087 31.7185L9.9909 31.7124C9.87103 31.6714 9.69411 31.6042 9.65295 31.5833C9.60304 31.5359 9.57202 31.3927 9.54855 31.3038C9.50803 31.1519 9.514 31.1342 9.6441 31.0138C9.72046 30.9434 9.79724 30.8852 9.81473 30.8843C9.83222 30.8835 9.84672 30.8053 9.84672 30.7104C9.84672 30.6155 9.87061 30.5244 9.90004 30.508C9.92947 30.4921 10.0758 30.4774 10.2251 30.4757C10.4503 30.4735 10.5066 30.4877 10.5561 30.5594C10.6111 30.6396 10.615 30.6345 10.615 30.4839C10.6145 30.3686 10.6329 30.322 10.6785 30.322C10.7135 30.322 10.7924 30.385 10.8534 30.4623C10.9366 30.5671 10.9579 30.6323 10.9387 30.7212C10.9246 30.7864 10.9323 30.8498 10.9558 30.8614C10.9822 30.8748 10.9984 30.7609 10.9984 30.5594C10.9984 30.3005 11.0112 30.2357 11.0624 30.2357C11.0974 30.2357 11.0833 30.0415 11.2817 30.2422L11.3823 30.322C11.3823 30.2575 11.3845 30.2008 11.3878 30.1709C11.2429 30.132 11.0468 30.0788 10.9348 30.0535C10.8808 30.0511 10.8493 30.0495 10.8467 30.0417C10.8446 30.0354 10.8794 30.041 10.9348 30.0535Z" fill="#FEFEFE"/>
<path d="M16.2946 30.375C16.2933 30.2542 16.3893 30.2336 16.4904 30.2206C16.5548 30.2124 16.6414 30.2025 16.6823 30.199C16.7305 30.1947 17.1349 30.111 17.1349 30.1667C17.1349 30.2141 18.4161 30.3341 17.5153 30.3496C18.0251 30.3803 17.3625 30.4288 17.4329 30.5C17.5072 30.5751 17.5736 30.6634 17.577 30.732C17.5801 30.7951 17.6042 30.9963 17.6348 31.086L17.7005 31.0417C17.6786 31.1559 17.6553 31.1459 17.6348 31.086L17.577 31.125C17.6107 31.2432 17.4405 31.0574 17.4123 31.1756C17.407 31.1984 17.389 31.2318 17.3646 31.2696C17.5189 31.2699 17.661 31.2747 17.6388 31.2917C17.5658 31.3473 17.7076 31.3077 17.7622 31.3392C17.8143 31.3698 17.7168 31.4168 17.6388 31.4375C17.5624 31.4582 18.0504 31.4634 18.0504 31.5833C18.0504 31.7162 17.4516 31.7949 17.33 31.8333C17.2537 31.8575 17.0919 32.0838 17.0625 32.0833C17.0245 32.0829 16.6302 32.0833 16.3627 32.0833C16.0128 32.2083 16.1946 32.04 16.1157 32.125C16.0718 32.1725 16.0956 32.0298 16.0334 32.0833C15.988 32.1224 15.9178 32.0781 15.8781 32.0668C15.8649 32.1037 15.8481 32.1199 15.8481 32.0833C15.8481 32.0634 15.8599 32.0616 15.8781 32.0668C15.9019 32.0005 15.9143 31.8673 15.7972 31.854C15.6266 31.835 15.704 32.194 15.704 32.2708C15.704 32.3545 14.6335 32.1072 14.4074 31.9583L14.9425 31.6058C15.0231 31.5821 14.7187 31.277 15.36 31.5355C15.0934 31.4281 14.9334 31.3423 15.36 31.5044C15.0677 31.3743 14.8026 31.2996 15.463 31.482C15.4484 31.4743 15.4338 31.4652 15.4202 31.4548C15.3301 31.3871 15.3246 31.365 15.3668 31.2369C15.4018 31.129 15.4005 31.0742 15.36 31.0103C15.3165 30.9413 15.3182 30.9145 15.3707 30.8614C15.4056 30.8261 15.4347 30.7773 15.4347 30.7536C15.4347 30.7298 15.4632 30.7104 15.4986 30.7104C15.5336 30.7104 15.572 30.6716 15.584 30.6241C15.5972 30.571 15.6791 30.5089 15.7972 30.4623C15.9026 30.4209 15.9888 30.3721 15.9892 30.3544C15.9892 30.3367 16.0421 30.3345 16.1065 30.3496C16.1709 30.3643 16.1768 30.3112 16.2186 30.3496C16.2598 30.3125 16.2392 30.2917 16.2946 30.375Z" fill="#FEFEFE"/>
<path d="M13.2165 20.3973C13.205 20.3973 13.0322 20.232 12.8326 20.0301C12.633 19.8281 12.4854 19.6628 12.5037 19.6628C12.5225 19.6633 12.6953 19.8286 12.8876 20.0305C13.0804 20.2325 13.228 20.3973 13.2165 20.3973Z" fill="#FEFFFF" fill-opacity="0.23"/>
<path d="M13.8137 21.0019C13.8022 21.0019 13.6674 20.8754 13.5151 20.7205C13.3628 20.5656 13.2532 20.4396 13.2724 20.4396C13.2912 20.44 13.4255 20.5665 13.571 20.721C13.716 20.8754 13.8252 21.0019 13.8137 21.0019Z" fill="#FEFFFF" fill-opacity="0.23"/>
<path d="M14.5389 5.66992C14.4566 5.67898 14.3035 5.67898 14.1977 5.66992C14.0919 5.66085 14.1593 5.65351 14.347 5.65308C14.5347 5.65308 14.6208 5.66042 14.5389 5.66992Z" fill="white" fill-opacity="0.79"/>
<path d="M27.1215 19.2964V19.1238C27.1215 18.9606 27.1253 18.955 27.1965 19.0228C27.2682 19.0914 27.2682 19.0992 27.1215 19.2964Z" fill="white"/>
<path d="M22.4717 13.1363C22.5045 13.1959 22.5135 13.1782 22.5143 13.05C22.5152 12.9611 22.5348 12.8882 22.5583 12.8882C22.5817 12.8882 22.6487 12.9464 22.7076 13.0176C22.766 13.0888 22.8232 13.1907 22.8338 13.2442C22.8445 13.2977 22.8615 13.3801 22.8718 13.4276C22.8816 13.4751 22.8914 13.4168 22.894 13.2981C22.8982 13.1039 22.905 13.0888 22.9648 13.1471C23.0015 13.1825 23.0475 13.2895 23.0671 13.3844C23.0863 13.4794 23.1337 13.63 23.1716 13.7189C23.2386 13.8755 23.2378 13.8833 23.1448 13.9666C23.0919 14.0136 23.0151 14.0624 22.9742 14.0745C22.914 14.0922 22.8991 14.0689 22.8957 13.816L22.5374 14.1612L22.5254 14.0317C22.5139 13.9096 22.5092 13.9066 22.4397 13.9761C22.3991 14.0166 22.2895 14.0896 22.1957 14.1383C22.1018 14.1871 21.9769 14.2272 21.9184 14.2277C21.8596 14.2281 21.796 14.2134 21.7768 14.1949C21.7576 14.1763 21.6808 14.137 21.4705 14.0542L21.7478 14.0965V13.7512C21.7478 13.5497 21.7657 13.406 21.7904 13.406C21.8139 13.406 21.8331 13.3866 21.8331 13.3629C21.8331 13.3391 21.8805 13.2761 21.938 13.2226C21.9956 13.1691 22.0438 13.1014 22.0447 13.0716C22.0455 13.0418 22.0656 13.0176 22.089 13.0176C22.1125 13.0176 22.1313 13.0418 22.1308 13.0716C22.1304 13.1109 22.1714 13.1165 22.2801 13.0932C22.4004 13.0673 22.4384 13.0759 22.4717 13.1363Z" fill="#FEFEFE"/>
<path d="M23.3474 14.0749C23.2941 14.093 23.2834 14.0404 23.2834 13.762L23.2838 13.4276L23.3627 13.5571C23.4063 13.6283 23.454 13.7689 23.469 13.8699C23.486 13.9821 23.4801 14.0533 23.454 14.0533C23.4306 14.0533 23.3828 14.0632 23.3474 14.0749Z" fill="#FEFEFE"/>
<path d="M26.9936 22.4143C26.9932 22.2658 27.0137 22.0816 27.0397 22.0043C27.0653 21.9271 27.0943 21.8641 27.1041 21.8641C27.1139 21.8641 27.122 22.0483 27.122 22.274C27.122 22.6098 27.1105 22.684 27.058 22.684C27.0081 22.684 26.9941 22.6249 26.9936 22.4143Z" fill="#FEFEFE"/>
<path d="M20.5308 30.7536C20.4796 30.7032 20.4745 30.663 20.5082 30.5702C20.5321 30.5051 20.5615 30.4516 20.5735 30.4516C20.5858 30.4516 20.5961 30.534 20.5965 30.635C20.5969 30.7994 20.5901 30.8119 20.5308 30.7536Z" fill="#FEFEFE"/>
<path d="M9.40102 31.2283C9.36434 31.1276 9.35993 31.0593 9.3878 31.0233C9.41083 30.9936 9.43685 30.9694 9.44624 30.9694C9.45519 30.9694 9.46117 31.0618 9.45605 31.3794L9.40102 31.2283Z" fill="#FEFEFE"/>
<path d="M40.376 19.664H45.056L42.68 13.208L40.376 19.664ZM39.416 22.424L38.144 26H35.216L41.216 9.2H44.096L50.288 26H47.36L46.064 22.424H39.416ZM54.4287 11.96V17.528H57.7887C58.5408 17.528 59.1968 17.248 59.7568 16.688C60.3008 16.144 60.5728 15.496 60.5728 14.744C60.5728 13.992 60.3008 13.336 59.7568 12.776C59.1968 12.232 58.5408 11.96 57.7887 11.96H54.4287ZM51.6687 9.2H57.7887C59.3248 9.2 60.6288 9.736 61.7008 10.808C62.7888 11.896 63.3328 13.208 63.3328 14.744C63.3328 16.264 62.7888 17.568 61.7008 18.656C60.6128 19.744 59.3087 20.288 57.7887 20.288H54.4287V26H51.6687V9.2ZM72.3329 11.672C70.7169 11.672 69.3729 12.248 68.3009 13.4C67.7569 13.976 67.3489 14.616 67.0769 15.32C66.8209 16.024 66.6929 16.784 66.6929 17.6C66.6929 19.232 67.2289 20.632 68.3009 21.8C69.3729 22.952 70.7169 23.528 72.3329 23.528C73.9329 23.528 75.2689 22.952 76.3409 21.8C77.4289 20.632 77.9729 19.232 77.9729 17.6C77.9729 16.784 77.8369 16.024 77.5649 15.32C77.2929 14.616 76.8849 13.976 76.3409 13.4C75.2689 12.248 73.9329 11.672 72.3329 11.672ZM72.3329 8.912C74.7169 8.912 76.7009 9.744 78.2849 11.408C79.9169 13.104 80.7329 15.168 80.7329 17.6C80.7329 20.048 79.9089 22.12 78.2609 23.816C76.6769 25.464 74.7009 26.288 72.3329 26.288C69.9169 26.288 67.9089 25.44 66.3089 23.744C64.7249 22.048 63.9329 20 63.9329 17.6C63.9329 15.2 64.7249 13.152 66.3089 11.456C67.9249 9.76 69.9329 8.912 72.3329 8.912ZM82.8303 26V9.2H85.5903V23.24H93.3423V26H82.8303ZM94.9072 26V9.2H97.6672V23.24H105.419V26H94.9072ZM114.025 11.672C112.409 11.672 111.065 12.248 109.993 13.4C109.449 13.976 109.041 14.616 108.769 15.32C108.513 16.024 108.385 16.784 108.385 17.6C108.385 19.232 108.921 20.632 109.993 21.8C111.065 22.952 112.409 23.528 114.025 23.528C115.625 23.528 116.961 22.952 118.033 21.8C119.121 20.632 119.665 19.232 119.665 17.6C119.665 16.784 119.529 16.024 119.257 15.32C118.985 14.616 118.577 13.976 118.033 13.4C116.961 12.248 115.625 11.672 114.025 11.672ZM114.025 8.912C116.409 8.912 118.393 9.744 119.977 11.408C121.609 13.104 122.425 15.168 122.425 17.6C122.425 20.048 121.601 22.12 119.953 23.816C118.369 25.464 116.393 26.288 114.025 26.288C111.609 26.288 109.601 25.44 108.001 23.744C106.417 22.048 105.625 20 105.625 17.6C105.625 15.2 106.417 13.152 108.001 11.456C109.617 9.76 111.625 8.912 114.025 8.912Z" fill="white"/>
</svg>
